<svg width="140" height="33" viewBox="0 0 140 33" fill="none" xmlns="http://www.w3.org/2000/svg">
<path d="M0.705078 23.2988V20.5391H5.16992V23.6504C5.16992 25.373 5.31641 26.5859 5.60938 27.2891C5.90234 27.9805 6.45312 28.3262 7.26172 28.3262C8.07031 28.3262 8.60352 28.0391 8.86133 27.4648C9.13086 26.8906 9.26562 25.9531 9.26562 24.6523C9.26562 23.3516 9.03125 22.2207 8.5625 21.2598C8.09375 20.2871 7.34961 19.2734 6.33008 18.2188L4.04492 15.8633C2.97852 14.75 2.14648 13.5957 1.54883 12.4004C0.962891 11.2051 0.669922 9.82227 0.669922 8.25195C0.669922 5.69727 1.16211 3.79883 2.14648 2.55664C3.13086 1.31445 4.82422 0.693359 7.22656 0.693359C9.62891 0.693359 11.252 1.41992 12.0957 2.87305C12.9512 4.31445 13.3789 6.42383 13.3789 9.20117V11.1172H9.03711V8.90234C9.03711 7.40234 8.9082 6.33008 8.65039 5.68555C8.39258 5.0293 7.89453 4.70117 7.15625 4.70117C6.42969 4.70117 5.90234 4.94727 5.57422 5.43945C5.25781 5.93164 5.09961 6.66992 5.09961 7.6543C5.09961 8.63867 5.26367 9.42383 5.5918 10.0098C5.91992 10.5957 6.51172 11.3457 7.36719 12.2598L9.91602 15.0195C11.1934 16.4023 12.1543 17.8027 12.7988 19.2207C13.4551 20.6387 13.7832 22.1855 13.7832 23.8613C13.7832 26.7559 13.2969 28.8945 12.3242 30.2773C11.3516 31.6602 9.64648 32.3516 7.20898 32.3516C4.7832 32.3516 3.08984 31.584 2.12891 30.0488C1.17969 28.502 0.705078 26.252 0.705078 23.2988ZM30.7109 24.0547C30.7109 26.9023 30.1719 29 29.0938 30.3477C28.0156 31.6836 26.2812 32.3516 23.8906 32.3516C21.5117 32.3516 19.7773 31.6777 18.6875 30.3301C17.6094 28.9824 17.0703 26.8906 17.0703 24.0547V1.04492H21.7812V23.9668C21.7812 25.5957 21.8574 26.5859 22.0098 26.9375C22.1621 27.2891 22.3438 27.6113 22.5547 27.9043C22.7773 28.1855 23.2285 28.3262 23.9082 28.3262C24.5879 28.3262 25.0742 28.127 25.3672 27.7285C25.6602 27.3301 25.8359 26.8379 25.8945 26.252C25.9648 25.6543 26 24.8926 26 23.9668V1.04492H30.7109V24.0547ZM41.3984 17.4629L39.8867 17.3926V32H35.1758V1.0625H42.9629C44.5801 1.0625 45.7871 1.39063 46.584 2.04688C47.3809 2.69141 47.9023 3.59961 48.1484 4.77148C48.4062 5.93164 48.5352 7.45508 48.5352 9.3418C48.5352 11.2168 48.3359 12.6465 47.9375 13.6309C47.5391 14.6152 46.8008 15.2773 45.7227 15.6172C46.7891 15.8047 47.5332 16.5254 47.9551 17.7793C48.377 19.0332 48.5879 21.6465 48.5879 25.6191C48.5879 29.5801 48.6465 31.707 48.7637 32H44.0527C43.9355 31.7656 43.877 28.0684 43.877 20.9082C43.877 19.5371 43.7129 18.6289 43.3848 18.1836C43.0566 17.7266 42.3945 17.4863 41.3984 17.4629ZM39.9043 13.7363H41.7852C42.3828 13.7363 42.8223 13.6016 43.1035 13.332C43.3965 13.0625 43.5957 12.5996 43.7012 11.9434C43.8184 11.2871 43.877 10.2852 43.877 8.9375V8.74414C43.877 7.06836 43.7363 5.97266 43.4551 5.45703C43.1738 4.94141 42.5234 4.68359 41.5039 4.68359H39.9043V13.7363ZM55.6895 32L50.8906 1.0625H55.373L57.3945 15.0371L58.6426 24.8809H58.7656L59.8379 15.0371L61.5254 1.0625H65.9199L61.5078 32H55.6895ZM69.207 32V1.0625H79.5781V5.12305H73.918V14.123H79.2969V18.0957H73.918V27.9395H79.7891V32H69.207ZM86.5742 32V19.6426L81.3887 1.0625H85.8887L88.9473 12.6289H89.0176L91.7422 1.0625H96.2246L91.2852 19.6426V32H86.5742Z" fill="white"/>
<path d="M102.342 1.0625H105.014L110.516 32H107.984L106.965 25.7246H100.777L99.8457 32H97.3672L102.342 1.0625ZM106.613 23.5625L103.766 6.05469H103.73L101.111 23.5625H106.613ZM120.236 1.0625H122.855V24.6172C122.855 27.3125 122.486 29.2812 121.748 30.5234C121.021 31.7539 119.773 32.3691 118.004 32.3691C116.234 32.3691 114.98 31.8008 114.242 30.6641C113.516 29.5156 113.152 27.6816 113.152 25.1621V22.5078H115.807V26.1816C115.807 27.8105 115.977 28.8535 116.316 29.3105C116.656 29.7559 116.955 30.0137 117.213 30.084C117.482 30.1543 117.775 30.1895 118.092 30.1895C119.334 30.1895 120.02 29.375 120.148 27.7461C120.207 27.0898 120.236 26.4629 120.236 25.8652V1.0625ZM131.486 1.0625H134.158L139.66 32H137.129L136.109 25.7246H129.922L128.99 32H126.512L131.486 1.0625ZM135.758 23.5625L132.91 6.05469H132.875L130.256 23.5625H135.758Z" fill="#FFD644"/>
</svg>
