<svg width="58" height="58" viewBox="0 0 58 58" fill="none" xmlns="http://www.w3.org/2000/svg">
<path d="M9.66666 41.4942L11.0925 40.0683L12.4942 38.6667H48.3333V9.66666H9.66666V41.4942ZM24.1667 14.5H43.5V19.3333H24.1667V14.5ZM24.1667 21.75H43.5V26.5833H24.1667V21.75ZM24.1667 29H36.25V33.8333H24.1667V29ZM14.5 14.5H19.3333V19.3333H14.5V14.5ZM14.5 21.75H19.3333V26.5833H14.5V21.75ZM14.5 29H19.3333V33.8333H14.5V29Z" fill="#E31837" fill-opacity="0.5"/>
<path d="M48.3333 4.83334H9.66668C7.00834 4.83334 4.85751 7.00834 4.85751 9.66668L4.83334 53.1667L14.5 43.5H48.3333C50.9917 43.5 53.1667 41.325 53.1667 38.6667V9.66668C53.1667 7.00834 50.9917 4.83334 48.3333 4.83334ZM48.3333 38.6667H12.4942L11.0683 40.0925L9.66668 41.4942V9.66668H48.3333V38.6667ZM14.5 29H19.3333V33.8333H14.5V29ZM14.5 21.75H19.3333V26.5833H14.5V21.75ZM14.5 14.5H19.3333V19.3333H14.5V14.5ZM24.1667 29H36.25V33.8333H24.1667V29ZM24.1667 21.75H43.5V26.5833H24.1667V21.75ZM24.1667 14.5H43.5V19.3333H24.1667V14.5Z" fill="#1C1C1C"/>
</svg>
