<svg width="58" height="58" viewBox="0 0 58 58" fill="none" xmlns="http://www.w3.org/2000/svg">
<path opacity="0.5" d="M21.75 24.1667C23.752 24.1667 25.375 22.5437 25.375 20.5417C25.375 18.5396 23.752 16.9167 21.75 16.9167C19.748 16.9167 18.125 18.5396 18.125 20.5417C18.125 22.5437 19.748 24.1667 21.75 24.1667Z" fill="#E31837"/>
<path opacity="0.5" d="M11.5275 41.0833H21.8708C21.895 40.9383 22.1608 39.6817 22.5717 38.6908C22.3058 38.6908 22.0158 38.6667 21.75 38.6667C18.0525 38.6667 13.8958 39.875 11.5275 41.0833Z" fill="#E31837"/>
<path d="M21.75 29C26.4142 29 30.2083 25.2058 30.2083 20.5417C30.2083 15.8775 26.4142 12.0833 21.75 12.0833C17.0858 12.0833 13.2917 15.8775 13.2917 20.5417C13.2917 25.2058 17.0858 29 21.75 29ZM21.75 16.9167C23.7558 16.9167 25.375 18.5358 25.375 20.5417C25.375 22.5475 23.7558 24.1667 21.75 24.1667C19.7442 24.1667 18.125 22.5475 18.125 20.5417C18.125 18.5358 19.7442 16.9167 21.75 16.9167ZM21.8708 41.0833H11.5275C13.92 39.875 18.0525 38.6667 21.75 38.6667C22.0158 38.6667 22.3058 38.6908 22.5717 38.6908C23.3933 36.9267 24.8192 35.4767 26.535 34.3167C24.7708 34.0025 23.1033 33.8333 21.75 33.8333C16.095 33.8333 4.83334 36.6608 4.83334 42.2917V45.9167H21.75V42.2917C21.75 41.8808 21.7983 41.47 21.8708 41.0833ZM39.875 35.0417C35.4283 35.0417 26.5833 37.4825 26.5833 42.2917V45.9167H53.1667V42.2917C53.1667 37.4825 44.3217 35.0417 39.875 35.0417ZM42.7992 30.6433C44.6358 29.6042 45.9167 27.6467 45.9167 25.375C45.9167 22.04 43.21 19.3333 39.875 19.3333C36.54 19.3333 33.8333 22.04 33.8333 25.375C33.8333 27.6467 35.1142 29.6042 36.9508 30.6433C37.8208 31.1267 38.8117 31.4167 39.875 31.4167C40.9383 31.4167 41.9292 31.1267 42.7992 30.6433Z" fill="black"/>
</svg>
