<svg width="47" height="46" viewBox="0 0 47 46" fill="none" xmlns="http://www.w3.org/2000/svg">
<path d="M45.441 23.5616L43.5243 21.645L29.1599 7.28056C29.158 7.27865 29.1561 7.27673 29.1532 7.27386L24.3577 2.47837L22.441 0.561708C21.6935 -0.186748 20.4784 -0.186748 19.7309 0.561708C18.9824 1.31016 18.9824 2.52341 19.7309 3.27187L20.5694 4.11041L3.48718 31.441L3.27443 31.2283C2.52693 30.4798 1.31177 30.4798 0.564272 31.2283C-0.184184 31.9767 -0.184184 33.19 0.564272 33.9384L2.48093 35.8551L10.1476 43.5218L12.0642 45.4384C12.438 45.8131 12.9287 46 13.4193 46C13.91 46 14.4007 45.8131 14.7744 45.4384C15.5229 44.69 15.5229 43.4767 14.7744 42.7283L14.5617 42.5155L16.8818 41.0656C17.9302 43.4048 20.2771 45.0417 23.0026 45.0417C26.7018 45.0417 29.7109 42.0325 29.7109 38.3334C29.7109 36.7099 29.1283 35.2082 28.1383 34.0295L41.8923 25.4333L42.7308 26.2718C43.1046 26.6465 43.5952 26.8334 44.0859 26.8334C44.5766 26.8334 45.0672 26.6465 45.441 26.2718C46.1894 25.5233 46.1894 24.3101 45.441 23.5616ZM23.0026 41.2083C21.6428 41.2083 20.5014 40.2596 20.2033 38.9888L24.8177 36.1052C25.4732 36.6429 25.8776 37.4613 25.8776 38.3334C25.8776 39.9184 24.5877 41.2083 23.0026 41.2083ZM23.0256 32.7041L17.2143 36.3343C17.2095 36.3372 17.2066 36.341 17.2018 36.3439L11.7796 39.7325L6.26921 34.2221L23.3515 6.89148L25.3285 8.86852L16.6163 21.9363C16.0289 22.817 16.2675 24.0073 17.1482 24.5938C17.474 24.8132 17.8439 24.9167 18.2091 24.9167C18.8281 24.9167 19.4367 24.6168 19.8056 24.0628L28.0923 11.6333L39.1102 22.6512L23.0256 32.7041Z" fill="black"/>
<path d="M35.5654 0.322127C34.6857 -0.265329 33.4954 -0.026705 32.908 0.854001L30.9913 3.72899C30.4039 4.6097 30.6425 5.79899 31.5232 6.38644C31.849 6.60494 32.2189 6.70844 32.5841 6.70844C33.2031 6.70844 33.8117 6.40849 34.1806 5.85457L36.0973 2.97958C36.6848 2.09887 36.4461 0.908626 35.5654 0.322127Z" fill="black"/>
<path d="M45.6806 10.4373C45.0931 9.55565 43.9029 9.31703 43.0231 9.90544L40.1481 11.8221C39.2674 12.4096 39.0298 13.5988 39.6163 14.4796C39.9852 15.0344 40.5928 15.3334 41.2128 15.3334C41.578 15.3334 41.9479 15.2299 42.2737 15.0114L45.1487 13.0948C46.0294 12.5073 46.2671 11.318 45.6806 10.4373Z" fill="black"/>
<path d="M44.4826 1.52008C43.7351 0.771626 42.5199 0.771626 41.7724 1.52008L36.9808 6.31174C36.2323 7.06019 36.2323 8.27344 36.9808 9.0219C37.3545 9.3966 37.8452 9.58348 38.3359 9.58348C38.8265 9.58348 39.3172 9.3966 39.6909 9.0219L44.4826 4.23024C45.231 3.48179 45.231 2.26854 44.4826 1.52008Z" fill="black"/>
</svg>
