<svg width="58" height="58" viewBox="0 0 58 58" fill="none" xmlns="http://www.w3.org/2000/svg">
<path opacity="0.5" d="M9.66666 41.0834H48.3333V45.9167H9.66666V41.0834ZM41.0833 24.1667H36.25V19.3334H21.75V24.1667H16.9167V19.3334H9.66666V33.8334H48.3333V19.3334H41.0833V24.1667Z" fill="#FFD644"/>
<path d="M48.3333 14.5H41.0833V9.66671C41.0833 6.98421 38.9325 4.83337 36.25 4.83337H21.75C19.0675 4.83337 16.9167 6.98421 16.9167 9.66671V14.5H9.66668C6.98418 14.5 4.83334 16.6509 4.83334 19.3334V45.9167C4.83334 48.5992 6.98418 50.75 9.66668 50.75H48.3333C51.0158 50.75 53.1667 48.5992 53.1667 45.9167V19.3334C53.1667 16.6509 51.0158 14.5 48.3333 14.5ZM21.75 9.66671H36.25V14.5H21.75V9.66671ZM48.3333 45.9167H9.66668V41.0834H48.3333V45.9167ZM48.3333 33.8334H9.66668V19.3334H16.9167V24.1667H21.75V19.3334H36.25V24.1667H41.0833V19.3334H48.3333V33.8334Z" fill="white"/>
</svg>
