<svg width="58" height="58" viewBox="0 0 58 58" fill="none" xmlns="http://www.w3.org/2000/svg">
<path d="M46.5933 20.7834L44.9017 17.8592L41.8325 19.0917L39.2708 20.1309L37.0717 18.4392C36.1292 17.7142 35.1383 17.1342 34.0992 16.7234L31.5375 15.6842L31.1508 12.9534L30.6917 9.66669H27.3083L26.8492 12.9292L26.4625 15.66L23.9008 16.7234C22.91 17.1342 21.9192 17.7142 20.88 18.4875L18.705 20.1309L16.1675 19.1159L13.0983 17.8592L11.4067 20.7834L14.0167 22.8134L16.1675 24.505L15.8292 27.2359C15.7567 27.9609 15.7083 28.5167 15.7083 29C15.7083 29.4834 15.7567 30.0392 15.8292 30.7642L16.1675 33.495L14.0167 35.1867L11.4067 37.2167L13.0983 40.1409L16.1675 38.9084L18.7292 37.8692L20.9283 39.5609C21.8708 40.2859 22.8617 40.8659 23.9008 41.2767L26.4625 42.3159L26.8492 45.0467L27.3083 48.3334H30.6675L31.1267 45.0709L31.5133 42.34L34.075 41.3009C35.0658 40.89 36.0567 40.31 37.0958 39.5367L39.2708 37.8934L41.7842 38.9084L44.8533 40.1409L46.545 37.2167L43.935 35.1867L41.7842 33.495L42.1225 30.7642C42.2192 30.015 42.2433 29.5075 42.2433 29C42.2433 28.4925 42.195 27.9609 42.1225 27.2359L41.7842 24.505L43.935 22.8134L46.5933 20.7834ZM29 38.6667C23.6592 38.6667 19.3333 34.3409 19.3333 29C19.3333 23.6592 23.6592 19.3334 29 19.3334C34.3408 19.3334 38.6667 23.6592 38.6667 29C38.6667 34.3409 34.3408 38.6667 29 38.6667Z" fill="#E31837" fill-opacity="0.5"/>
<path d="M46.9558 31.3683C47.0525 30.595 47.125 29.8216 47.125 29C47.125 28.1783 47.0525 27.405 46.9558 26.6316L52.055 22.6441C52.5142 22.2816 52.635 21.6291 52.345 21.0975L47.5117 12.7358C47.2942 12.3491 46.8833 12.1316 46.4483 12.1316C46.3033 12.1316 46.1583 12.1558 46.0375 12.2041L40.02 14.6208C38.7633 13.6541 37.41 12.8566 35.9358 12.2525L35.0175 5.84831C34.945 5.26831 34.4375 4.83331 33.8333 4.83331H24.1667C23.5625 4.83331 23.055 5.26831 22.9825 5.84831L22.0642 12.2525C20.59 12.8566 19.2367 13.6783 17.98 14.6208L11.9625 12.2041C11.8175 12.1558 11.6725 12.1316 11.5275 12.1316C11.1167 12.1316 10.7058 12.3491 10.4883 12.7358L5.65501 21.0975C5.34084 21.6291 5.48584 22.2816 5.94501 22.6441L11.0442 26.6316C10.9475 27.405 10.875 28.2025 10.875 29C10.875 29.7975 10.9475 30.595 11.0442 31.3683L5.94501 35.3558C5.48584 35.7183 5.36501 36.3708 5.65501 36.9025L10.4883 45.2641C10.7058 45.6508 11.1167 45.8683 11.5517 45.8683C11.6967 45.8683 11.8417 45.8442 11.9625 45.7958L17.98 43.3792C19.2367 44.3458 20.59 45.1433 22.0642 45.7475L22.9825 52.1516C23.055 52.7316 23.5625 53.1666 24.1667 53.1666H33.8333C34.4375 53.1666 34.945 52.7316 35.0175 52.1516L35.9358 45.7475C37.41 45.1433 38.7633 44.3216 40.02 43.3792L46.0375 45.7958C46.1825 45.8442 46.3275 45.8683 46.4725 45.8683C46.8833 45.8683 47.2942 45.6508 47.5117 45.2641L52.345 36.9025C52.635 36.3708 52.5142 35.7183 52.055 35.3558L46.9558 31.3683ZM42.1708 27.2358C42.2675 27.985 42.2917 28.4925 42.2917 29C42.2917 29.5075 42.2433 30.0391 42.1708 30.7641L41.8325 33.495L43.9833 35.1866L46.5933 37.2166L44.9017 40.1408L41.8325 38.9083L39.3192 37.8933L37.1442 39.5366C36.105 40.31 35.1142 40.89 34.1233 41.3008L31.5617 42.34L31.175 45.0708L30.6917 48.3333H27.3083L26.8492 45.0708L26.4625 42.34L23.9008 41.3008C22.8617 40.8658 21.895 40.31 20.9283 39.585L18.7292 37.8933L16.1675 38.9325L13.0983 40.165L11.4067 37.2408L14.0167 35.2108L16.1675 33.5191L15.8292 30.7883C15.7567 30.0391 15.7083 29.4833 15.7083 29C15.7083 28.5166 15.7567 27.9608 15.8292 27.2358L16.1675 24.505L14.0167 22.8133L11.4067 20.7833L13.0983 17.8591L16.1675 19.0916L18.6808 20.1066L20.8558 18.4633C21.895 17.69 22.8858 17.11 23.8767 16.6991L26.4383 15.66L26.825 12.9291L27.3083 9.66665H30.6675L31.1267 12.9291L31.5133 15.66L34.075 16.6991C35.1142 17.1341 36.0808 17.69 37.0475 18.415L39.2467 20.1066L41.8083 19.0675L44.8775 17.835L46.5692 20.7591L43.9833 22.8133L41.8325 24.505L42.1708 27.2358ZM29 19.3333C23.6592 19.3333 19.3333 23.6591 19.3333 29C19.3333 34.3408 23.6592 38.6666 29 38.6666C34.3408 38.6666 38.6667 34.3408 38.6667 29C38.6667 23.6591 34.3408 19.3333 29 19.3333ZM29 33.8333C26.3417 33.8333 24.1667 31.6583 24.1667 29C24.1667 26.3416 26.3417 24.1666 29 24.1666C31.6583 24.1666 33.8333 26.3416 33.8333 29C33.8333 31.6583 31.6583 33.8333 29 33.8333Z" fill="black"/>
</svg>
