<svg width="58" height="58" viewBox="0 0 58 58" fill="none" xmlns="http://www.w3.org/2000/svg">
<path opacity="0.5" d="M48.3333 19.3333V29.1933C47.5358 29.0725 46.7383 29 45.9167 29C37.3858 29 30.3775 35.3075 29.1933 43.5H9.66666V19.3333L29 31.4167L48.3333 19.3333ZM48.3333 14.5H9.66666L29 26.5833L48.3333 14.5Z" fill="#E31837"/>
<path d="M29.1933 43.4998H9.66668V19.3332L29 31.4165L48.3333 19.3332V29.1932C50.0492 29.4348 51.6683 29.9423 53.1667 30.6432V14.4998C53.1667 11.8415 50.9917 9.6665 48.3333 9.6665H9.66668C7.00834 9.6665 4.85751 11.8415 4.85751 14.4998L4.83334 43.4998C4.83334 46.1582 7.00834 48.3332 9.66668 48.3332H29.1933C29.0725 47.5357 29 46.7382 29 45.9165C29 45.0948 29.0725 44.2973 29.1933 43.4998ZM48.3333 14.4998L29 26.5832L9.66668 14.4998H48.3333ZM41.905 53.1665L33.35 44.6115L36.7575 41.204L41.8808 46.3273L52.1275 36.0807L55.5833 39.4882L41.905 53.1665Z" fill="black"/>
</svg>
